<?xml version="1.0" encoding="utf-8"?>
<!-- Generator: Adobe Illustrator 25.0.1, SVG Export Plug-In . SVG Version: 6.00 Build 0)  -->
<svg version="1.1"
	 id="svg2" xmlns:cc="http://creativecommons.org/ns#" xmlns:dc="http://purl.org/dc/elements/1.1/" xmlns:inkscape="http://www.inkscape.org/namespaces/inkscape" xmlns:rdf="http://www.w3.org/1999/02/22-rdf-syntax-ns#" xmlns:sodipodi="http://sodipodi.sourceforge.net/DTD/sodipodi-0.dtd" xmlns:svg="http://www.w3.org/2000/svg"
	 xmlns="http://www.w3.org/2000/svg" xmlns:xlink="http://www.w3.org/1999/xlink" x="0px" y="0px" viewBox="0 0 440 293"
	 style="enable-background:new 0 0 440 293;" xml:space="preserve">
<style type="text/css">
	.st0{fill:#EEEEEE;}
	.st1{fill:#9F9F9F;}
	.st2{fill:url(#rect961_1_);stroke:#FFFFFF;stroke-width:5.398;stroke-linecap:round;stroke-linejoin:round;}
	
		.st3{fill-rule:evenodd;clip-rule:evenodd;fill:#CCCCCC;stroke:#FFFFFF;stroke-width:2.2567;stroke-linecap:round;stroke-linejoin:round;stroke-miterlimit:10;}
	
		.st4{fill-rule:evenodd;clip-rule:evenodd;fill:#FFFFFF;stroke:#FFFFFF;stroke-width:2.2567;stroke-linecap:round;stroke-linejoin:round;stroke-miterlimit:10;}
	
		.st5{fill-rule:evenodd;clip-rule:evenodd;fill:#B3B3B3;stroke:#FFFFFF;stroke-width:2.2567;stroke-linecap:round;stroke-linejoin:round;stroke-miterlimit:10;}
	.st6{fill:#767676;}
	.st7{font-family:'Helvetica';}
	.st8{font-size:24.9739px;}
</style>
<defs>
	<inkscape:path-effect  effect="spiro" id="path-effect3414" is_visible="true" lpeversion="0"></inkscape:path-effect>
	<inkscape:path-effect  effect="spiro" id="path-effect3410" is_visible="true" lpeversion="0"></inkscape:path-effect>
	<inkscape:path-effect  effect="spiro" id="path-effect3406" is_visible="true" lpeversion="0"></inkscape:path-effect>
	<inkscape:path-effect  effect="spiro" id="path-effect3402" is_visible="true" lpeversion="0"></inkscape:path-effect>
	<inkscape:path-effect  effect="spiro" id="path-effect3398" is_visible="true" lpeversion="0"></inkscape:path-effect>
	<inkscape:path-effect  effect="spiro" id="path-effect3392" is_visible="true" lpeversion="0"></inkscape:path-effect>
	<inkscape:path-effect  effect="spiro" id="path-effect3388" is_visible="true" lpeversion="0"></inkscape:path-effect>
	<inkscape:path-effect  effect="spiro" id="path-effect3372" is_visible="true" lpeversion="0"></inkscape:path-effect>
	<inkscape:path-effect  effect="spiro" id="path-effect3368" is_visible="true" lpeversion="0"></inkscape:path-effect>
	<inkscape:path-effect  effect="spiro" id="path-effect3364" is_visible="true" lpeversion="0"></inkscape:path-effect>
	<inkscape:path-effect  effect="spiro" id="path-effect3360" is_visible="true" lpeversion="0"></inkscape:path-effect>
	<inkscape:path-effect  effect="spiro" id="path-effect3346" is_visible="true" lpeversion="0"></inkscape:path-effect>
	<inkscape:path-effect  effect="spiro" id="path-effect3392-8" is_visible="true" lpeversion="0"></inkscape:path-effect>
</defs>
<sodipodi:namedview  bordercolor="#666666" borderopacity="1.0" fit-margin-bottom="0" fit-margin-left="0" fit-margin-right="0" fit-margin-top="0" id="base" inkscape:current-layer="layer1" inkscape:cx="148.40044" inkscape:cy="109.10202" inkscape:document-rotation="0" inkscape:document-units="px" inkscape:guide-bbox="true" inkscape:object-nodes="true" inkscape:pageopacity="0.0" inkscape:pageshadow="2" inkscape:snap-smooth-nodes="true" inkscape:window-height="1004" inkscape:window-maximized="1" inkscape:window-width="1920" inkscape:window-x="0" inkscape:window-y="42" inkscape:zoom="0.7071068" pagecolor="#ffffff" showgrid="false" showguides="false" units="px">
	<inkscape:grid  id="grid3336" originx="-399.13435" originy="-510.42818" type="xygrid"></inkscape:grid>
	<sodipodi:guide  id="guide3375" orientation="0,1" position="-117.13437,-25.564321"></sodipodi:guide>
	<sodipodi:guide  id="guide3377" orientation="0,1" position="-114.13437,-23.564321"></sodipodi:guide>
	<sodipodi:guide  id="guide3380" orientation="0,1" position="-121.13437,-27.564321"></sodipodi:guide>
	<sodipodi:guide  id="guide3382" orientation="0,1" position="-114.13437,-22.564321"></sodipodi:guide>
	<sodipodi:guide  id="guide3384" orientation="0,1" position="-114.13437,-21.564321"></sodipodi:guide>
	<sodipodi:guide  id="guide3416" orientation="-2,0.5" position="-115.13437,-25.564311"></sodipodi:guide>
	<sodipodi:guide  id="guide3420" orientation="-2,0.5" position="-115.13437,-25.564311"></sodipodi:guide>
	<sodipodi:guide  id="guide4180" orientation="0.24382204,-0.96981999" position="206.80442,220.41193"></sodipodi:guide>
	<sodipodi:guide  id="guide4182" orientation="1,0" position="86.804424,280.52227"></sodipodi:guide>
	<sodipodi:guide  id="guide4186" orientation="1,0" position="206.80442,250.52231"></sodipodi:guide>
	<sodipodi:guide  id="guide4188" orientation="-0.24382199,0.96982" position="206.80442,190.30156"></sodipodi:guide>
</sodipodi:namedview>
<g id="layer1" transform="translate(-399.13437,-122.79051)" inkscape:groupmode="layer" inkscape:label="Layer 1">
	<path id="rect1017" class="st0" d="M408.5,122.8h421.3c5.2,0,9.4,2.3,9.4,5.1v282.9c0,2.8-4.2,5.1-9.4,5.1H408.5
		c-5.2,0-9.4-2.3-9.4-5.1V127.9C399.1,125.1,403.3,122.8,408.5,122.8z"/>
	<g id="g1015" transform="translate(43.778173,191.04163)">
		<path id="rect1002" class="st1" d="M518.7,21.2l49.2-14.4c3.5-1,7.1,1,8.1,4.4l16.2,55.2c1,3.5-1,7.1-4.4,8.1l-49.2,14.4
			c-3.5,1-7.1-1-8.1-4.4l-16.2-55.2C513.2,25.8,515.2,22.2,518.7,21.2z"/>
		<g id="g1000" transform="rotate(16.320529,538.13563,-184.89727)">
			
				<linearGradient id="rect961_1_" gradientUnits="userSpaceOnUse" x1="1206.8853" y1="245.3023" x2="1205.6299" y2="165.56" gradientTransform="matrix(0.9597 -0.281 -0.281 -0.9597 -442.4652 540.0121)">
				<stop  offset="0" style="stop-color:#C2C2C2"/>
				<stop  offset="1" style="stop-color:#9F9F9F"/>
			</linearGradient>
			<path id="rect961" class="st2" d="M607.7-38.5l77,0c2,0,3.6,1.6,3.6,3.6v83.3c0,2-1.6,3.6-3.6,3.6l-77,0c-2,0-3.6-1.6-3.6-3.6
				v-83.3C604.1-36.9,605.7-38.5,607.7-38.5z"/>
			<g id="g875" transform="matrix(0.17265471,0,0,0.17265471,512.49324,-6.3296456)">
				
					<rect id="rect3338" x="600.7" y="-154.8" transform="matrix(2.819178e-06 1 -1 2.819178e-06 813.0573 -739.4802)" class="st3" width="351.2" height="383.3"/>
				
					<rect id="rect3342" x="694.3" y="-248.5" transform="matrix(2.819178e-06 1 -1 2.819178e-06 719.4061 -833.1312)" class="st4" width="163.9" height="383.3"/>
				
					<path id="path3344" inkscape:connector-curvature="0" inkscape:original-d="m 300,317.36255 38.46147,-53.53818 60.53097,-45.16084 15.88277,18.57394 13.61285,-38.68356 8.20133,-2.98188 13.3106,-28.2093 180,179.99979" inkscape:path-effect="#path-effect3346" sodipodi:nodetypes="cccccccc" class="st3" d="
					M608,25.1l30-41.8l47.2-35.2l12.4,14.5l10.6-30.2l6.4-2.3l10.4-22L865.6,48.5"/>
				<path id="path3390-0" inkscape:connector-curvature="0" sodipodi:nodetypes="cscccccccccccc" class="st5" d="M725.1-92
					c3.2,12.9,6,25.8,8.5,38.8c1.9,9.9,3.5,19.8,4.9,29.8L721.3-29l-36-23l4.2,36.2l-1.3,19.3l7.8,23.7l57.1-9.2l65.6-16.5
					l-37.3-60.4l-7.6,11.7l-21.2-17.3L725.1-92z"/>
				
					<path id="path3358" inkscape:connector-curvature="0" inkscape:original-d="m 419.99999,347.36252 81.89918,-74.42959 18.50574,-9.68009 23.6512,-44.18894 25.94388,-21.70121 179.99999,179.99979" inkscape:path-effect="#path-effect3360" sodipodi:nodetypes="cccccc" class="st3" d="
					M701.7,48.5l63.9-58.1l14.4-7.6l18.5-34.5l20.2-16.9L959.2,71.9"/>
				
					<path id="path3386" inkscape:connector-curvature="0" inkscape:original-d="m 569.99999,197.36269 35.9388,80.91289 v 30.11038 30.11038 l 22.45864,19.46652 c 5.77311,-6.36416 13.54339,-11.40815 22.44431,-15.70477 13.00316,-6.27685 32.0432,-8.74899 47.17057,-13.6217 6.8762,-2.21491 12.68001,-4.81998 18.21343,-7.87277 1.55883,-0.86001 1.99765,-2.671 3.77424,-3.40107 h -30 l -40.52149,-40.55006 -29.85645,-48.91972 -10.25307,8.83886 z" inkscape:path-effect="#path-effect3388" sodipodi:nodetypes="cccccssscccccc" class="st5" d="
					M818.8-68.6l28,63.1l0,23.5v23.5l17.5,15.2c5.1-5,11-9.2,17.5-12.3c11.6-5.5,24.5-7.3,36.8-10.6c5-1.4,10.1-3,14.2-6.1
					c1.1-0.8,2-1.7,2.9-2.7l-23.4,0L880.8-6.6l-23.3-38.2l-8,6.9L818.8-68.6z"/>
				<path id="path3370" inkscape:connector-curvature="0" sodipodi:nodetypes="cssssscsssssc" class="st4" d="M701.7,212.4
					c-0.3-7.5-6.9-13.7,13.4-23.9c24.8-12.5,98.3-28,118.7-46.8c15.2-13.9-55-29.4-42.9-46.1C796.3,88,836.9,80,855,71.9
					c17.1-7.6,11.8-15.5,24.5-23.4c12.3-7.7,53.3-15.4,56.3-23.4c-8.1,8.2-53.7,15.9-70.2,23.4c-17.4,7.9-16.8,15.6-38.6,23
					c-23.5,8-69.6,16-80.2,23.8c-22.2,16.3,36.6,33.2,12.6,46.8C727.1,160.5,642.9,175.9,608,189c-24.1,9-22.2,13.9-23.4,23.4"/>
			</g>
		</g>
	</g>
	<text transform="matrix(1 0 0 1 560.2734 340.289)" class="st6 st7 st8">NO IMAGE</text>
	<text transform="matrix(1 0 0 1 557.2246 371.5068)" class="st6 st7 st8">AVAILABLE</text>
</g>
</svg>
